<?xml version="1.0" encoding="UTF-8" standalone="no"?>
<!-- Created with Inkscape (http://www.inkscape.org/) -->

<svg
   width="64pt"
   height="64pt"
   viewBox="0 0 22.577778 22.577778"
   version="1.1"
   id="svg831"
   inkscape:version="1.1.2 (b8e25be833, 2022-02-05)"
   sodipodi:docname="Export - Unblash - 64px.svg"
   inkscape:export-filename="E:\Icon Design\TR Icon Design Project\Carlos - Icon Design Project\2023\Januari 2023\Done\Filedline\14 - Magnet.png"
   inkscape:export-xdpi="576"
   inkscape:export-ydpi="576"
   xmlns:inkscape="http://www.inkscape.org/namespaces/inkscape"
   xmlns:sodipodi="http://sodipodi.sourceforge.net/DTD/sodipodi-0.dtd"
   xmlns="http://www.w3.org/2000/svg"
   xmlns:svg="http://www.w3.org/2000/svg"
   xmlns:rdf="http://www.w3.org/1999/02/22-rdf-syntax-ns#"
   xmlns:cc="http://creativecommons.org/ns#"
   xmlns:dc="http://purl.org/dc/elements/1.1/">
  <defs
     id="defs825">
    <pattern
       id="EMFhbasepattern"
       patternUnits="userSpaceOnUse"
       width="6"
       height="6"
       x="0"
       y="0" />
    <pattern
       id="EMFhbasepattern-9"
       patternUnits="userSpaceOnUse"
       width="6"
       height="6"
       x="0"
       y="0" />
    <pattern
       id="EMFhbasepattern-0"
       patternUnits="userSpaceOnUse"
       width="6"
       height="6"
       x="0"
       y="0" />
    <pattern
       id="EMFhbasepattern-7"
       patternUnits="userSpaceOnUse"
       width="6"
       height="6"
       x="0"
       y="0" />
    <pattern
       id="EMFhbasepattern-2"
       patternUnits="userSpaceOnUse"
       width="6"
       height="6"
       x="0"
       y="0" />
    <pattern
       id="EMFhbasepattern-98"
       patternUnits="userSpaceOnUse"
       width="6"
       height="6"
       x="0"
       y="0" />
    <pattern
       id="EMFhbasepattern-6"
       patternUnits="userSpaceOnUse"
       width="6"
       height="6"
       x="0"
       y="0" />
    <pattern
       id="EMFhbasepattern-01"
       patternUnits="userSpaceOnUse"
       width="6"
       height="6"
       x="0"
       y="0" />
    <pattern
       id="EMFhbasepattern-07"
       patternUnits="userSpaceOnUse"
       width="6"
       height="6"
       x="0"
       y="0" />
    <pattern
       id="EMFhbasepattern-8"
       patternUnits="userSpaceOnUse"
       width="6"
       height="6"
       x="0"
       y="0" />
    <pattern
       id="EMFhbasepattern-4"
       patternUnits="userSpaceOnUse"
       width="6"
       height="6"
       x="0"
       y="0" />
    <pattern
       id="EMFhbasepattern-40"
       patternUnits="userSpaceOnUse"
       width="6"
       height="6"
       x="0"
       y="0" />
    <pattern
       id="EMFhbasepattern-08"
       patternUnits="userSpaceOnUse"
       width="6"
       height="6"
       x="0"
       y="0" />
    <pattern
       id="EMFhbasepattern-04"
       patternUnits="userSpaceOnUse"
       width="6"
       height="6"
       x="0"
       y="0" />
    <pattern
       id="EMFhbasepattern-014"
       patternUnits="userSpaceOnUse"
       width="6"
       height="6"
       x="0"
       y="0" />
    <pattern
       id="EMFhbasepattern-27"
       patternUnits="userSpaceOnUse"
       width="6"
       height="6"
       x="0"
       y="0" />
    <pattern
       id="EMFhbasepattern-09"
       patternUnits="userSpaceOnUse"
       width="6"
       height="6"
       x="0"
       y="0" />
    <pattern
       id="EMFhbasepattern-5"
       patternUnits="userSpaceOnUse"
       width="6"
       height="6"
       x="0"
       y="0" />
    <pattern
       id="EMFhbasepattern-018"
       patternUnits="userSpaceOnUse"
       width="6"
       height="6"
       x="0"
       y="0" />
  </defs>
  <sodipodi:namedview
     id="base"
     pagecolor="#ffffff"
     bordercolor="#666666"
     borderopacity="1.0"
     inkscape:pageopacity="0.0"
     inkscape:pageshadow="2"
     inkscape:zoom="3.7537427"
     inkscape:cx="38.228513"
     inkscape:cy="54.612161"
     inkscape:document-units="pt"
     inkscape:current-layer="layer1"
     showgrid="false"
     units="pt"
     inkscape:window-width="958"
     inkscape:window-height="1041"
     inkscape:window-x="0"
     inkscape:window-y="0"
     inkscape:window-maximized="0"
     inkscape:pagecheckerboard="true"
     inkscape:showpageshadow="false"
     inkscape:object-paths="true"
     inkscape:snap-intersection-paths="true"
     inkscape:snap-smooth-nodes="true"
     inkscape:snap-midpoints="true"
     showguides="true"
     inkscape:snap-bbox="true"
     inkscape:bbox-nodes="true"
     inkscape:snap-nodes="false"
     inkscape:snap-global="true"
     inkscape:snap-others="false">
    <inkscape:grid
       type="xygrid"
       id="grid1378" />
    <sodipodi:guide
       position="0.97013831,21.607643"
       orientation="78.000048,0"
       id="guide1380"
       inkscape:locked="false" />
    <sodipodi:guide
       position="0.97013831,0.97013129"
       orientation="0,78.000005"
       id="guide1382"
       inkscape:locked="false" />
    <sodipodi:guide
       position="21.607639,0.97013129"
       orientation="-78.000048,0"
       id="guide1384"
       inkscape:locked="false" />
    <sodipodi:guide
       position="21.607639,21.607643"
       orientation="0,-78.000005"
       id="guide1386"
       inkscape:locked="false" />
  </sodipodi:namedview>
  <metadata
     id="metadata828">
    <rdf:RDF>
      <cc:Work
         rdf:about="">
        <dc:format>image/svg+xml</dc:format>
        <dc:type
           rdf:resource="http://purl.org/dc/dcmitype/StillImage" />
      </cc:Work>
    </rdf:RDF>
  </metadata>
  <g
     inkscape:label="Icon"
     inkscape:groupmode="layer"
     id="layer1"
     transform="translate(0,-274.42223)">
    <g
       id="g60623"
       style="display:inline;stroke-width:0.794521"
       transform="matrix(1.2586207,0,0,1.2586207,-76.149659,-117.40378)">
      <path
         style="color:#000000;fill:#e2f0fa;stroke-width:0.794521;stroke-linecap:round;stroke-linejoin:round;-inkscape-stroke:none"
         d="m 69.847778,318.71756 c -0.142679,5.1e-4 -0.25792,0.1166 -0.257369,0.25928 v 4.36675 c 0,0.60604 0.50149,1.10383 1.119079,1.10383 0.617591,0 1.11908,-0.49779 1.11908,-1.10383 v -4.36675 c 5.55e-4,-0.14342 -0.115851,-0.25983 -0.259275,-0.25928 z"
         id="path1231987"
         sodipodi:nodetypes="ccsssccc" />
      <path
         style="color:#000000;fill:#e2f0fa;stroke-width:0.794519;stroke-linecap:round;stroke-linejoin:round;-inkscape-stroke:none"
         d="m 66.936074,316.69203 a 0.24571862,0.24571862 0 0 0 -0.244848,0.24666 v 6.23908 c 0,0.57655 0.477091,1.05012 1.064633,1.05012 0.587544,0 1.064634,-0.47357 1.064634,-1.05012 v -6.23908 a 0.24571862,0.24571862 0 0 0 -0.246661,-0.24666 z"
         id="path1211270" />
      <path
         id="path1211276"
         style="color:#000000;fill:#9ccc65;fill-opacity:1;stroke-width:0.794521;stroke-linecap:round;stroke-linejoin:round;-inkscape-stroke:none"
         d="m 68.434285,319.32043 c -0.204613,0.15019 -0.35521,0.0609 -0.533655,-0.0218 -0.120331,-0.0628 -0.270414,-0.14353 -0.465735,-0.16543 -0.313391,0 -0.510845,0.0925 -0.755364,0.25082 v 3.89858 c 0,0.58289 0.482533,1.06198 1.076527,1.06198 0.593995,0 1.076041,-0.47909 1.076041,-1.06198 v -4.2508 z"
         sodipodi:nodetypes="ccccssscc" />
      <path
         style="color:#000000;fill:#e2f0fa;stroke-width:0.79452;stroke-linecap:round;stroke-linejoin:round;-inkscape-stroke:none"
         d="m 63.989999,314.7026 a 0.24301985,0.24301985 0 0 0 -0.242158,0.24395 v 8.115 c 0,0.57022 0.47185,1.03859 1.05294,1.03859 0.58109,0 1.052941,-0.46837 1.052941,-1.03859 v -8.115 A 0.24301985,0.24301985 0 0 0 65.60977,314.7026 Z"
         id="path1205283" />
      <path
         id="path1205091"
         style="color:#000000;fill:#308dd9;fill-opacity:1;stroke-width:0.794521;stroke-linecap:round;stroke-linejoin:round;-inkscape-stroke:none"
         d="m 65.464682,318.35626 c -0.201207,0.14838 -0.34661,0.0585 -0.52206,-0.0214 -0.117716,-0.0614 -0.264468,-0.16136 -0.455614,-0.16136 -0.250802,0 -0.498932,0.0909 -0.738952,0.24536 v 4.78586 c 0,0.57022 0.471575,1.0389 1.052662,1.0389 0.581088,0 1.053134,-0.46868 1.053134,-1.0389 v -5.12994 z"
         sodipodi:nodetypes="ccccssscc" />
      <path
         style="color:#000000;fill:#4f697d;stroke-width:0.794521;stroke-linecap:round;stroke-linejoin:round;-inkscape-stroke:none"
         d="m 62.066406,319.75391 a 0.26460996,0.26460996 0 0 0 -0.263672,0.26562 v 1.05664 a 0.26460996,0.26460996 0 0 0 0.263672,0.26563 h 0.529297 c 0.435244,0 0.792969,-0.35773 0.792969,-0.79297 0,-0.43524 -0.357725,-0.79492 -0.792969,-0.79492 z"
         id="path1231423" />
      <path
         style="color:#000000;fill:#4f697d;stroke-width:0.794521;stroke-linecap:round;stroke-linejoin:round;-inkscape-stroke:none"
         d="m 62.248307,325.19375 c -0.435245,0 -0.792969,0.35968 -0.792969,0.79492 v 0.28125 c 0,0.43524 0.357724,0.79297 0.792969,0.79297 H 72.0625 c 0.08365,4.7e-4 0.162586,-0.0386 0.212891,-0.10547 l 1.185546,-1.33984 c 0.131797,-0.17494 0.0061,-0.42511 -0.21289,-0.42383 z"
         id="path1231799"
         sodipodi:nodetypes="ssssccccs" />
      <path
         style="color:#000000;fill:#c8dae5;stroke-width:0.794521;stroke-linecap:round;stroke-linejoin:round;-inkscape-stroke:none"
         d="m 63.992402,313.48615 c -0.309297,0 -0.56509,0.25579 -0.565094,0.56509 v 0.64556 c 4e-6,0.30931 0.255797,0.5651 0.565094,0.5651 h 1.614806 c 0.309296,0 0.565089,-0.25579 0.565092,-0.5651 v -0.64556 c -3e-6,-0.3093 -0.255796,-0.56509 -0.565092,-0.56509 z"
         id="path1205475" />
      <path
         style="color:#000000;fill:#c8dae5;stroke-width:0.794521;stroke-linecap:round;stroke-linejoin:round;-inkscape-stroke:none"
         d="m 66.873047,315.52148 c -0.33781,0 -0.617184,0.27938 -0.617188,0.61719 v 0.70508 c 4e-6,0.33781 0.279378,0.61719 0.617188,0.61719 h 1.763672 c 0.33781,0 0.617184,-0.27938 0.617187,-0.61719 v -0.70508 c -3e-6,-0.33781 -0.279377,-0.61719 -0.617187,-0.61719 z"
         id="path1231229" />
      <path
         style="color:#000000;fill:#e2f0fa;fill-opacity:1;stroke-width:3.00291;stroke-linecap:round;stroke-linejoin:round;-inkscape-stroke:none"
         d="m 281.66521,157.52784 0.17677,-16.92185 c 1.11087,-0.41326 1.91211,-1.48813 1.91211,-2.73438 v -0.59957 c 0,-1.59799 -1.31802,-2.91602 -2.91601,-2.91602 h -4.77186 c -1.59799,0 -2.91602,1.31803 -2.91602,2.91602 v 0.59957 c 0,1.24843 0.80604,2.32468 1.91992,2.73633 l 0.13258,16.9199 -10.51267,14.90433 c -1.50513,2.36519 -0.54233,4.68253 2.26114,4.68253 h 23.00977 c 2.80348,0 3.75845,-2.44284 2.25333,-4.80803 z"
         transform="matrix(0.26458334,0,0,0.26458334,0,280.06666)"
         id="rect38814-4-6"
         sodipodi:nodetypes="ccsssssscccsscc" />
      <path
         id="path1240048"
         style="color:#000000;fill:#9ccc65;fill-opacity:1;stroke-width:0.794521;stroke-linecap:round;stroke-linejoin:round;-inkscape-stroke:none"
         d="m 71.562128,323.47761 -1.556205,2.16912 c -0.0025,0.004 -0.005,0.007 -0.0074,0.0109 -0.379992,0.59712 0.06392,1.40532 0.771692,1.40532 h 5.809144 c 0.707778,0 1.14971,-0.83988 0.769721,-1.43701 -0.0023,-0.004 -0.0048,-0.007 -0.0074,-0.0109 l -1.623266,-2.2331 c -0.702523,0.17378 -1.410137,-0.11363 -1.955119,-0.31459 -0.21726,-0.0786 -0.390648,-0.13829 -0.74557,-0.13829 -0.517544,0 -1.054884,0.30042 -1.455602,0.54854 z"
         sodipodi:nodetypes="cccsscccccc" />
      <path
         style="color:#000000;fill:#c8dae5;fill-opacity:1;stroke-width:0.794521;stroke-linecap:round;stroke-linejoin:round;-inkscape-stroke:none"
         d="m 69.902483,317.71857 c -0.309325,0 -0.565142,0.25581 -0.565146,0.56515 v 0.64741 c 4e-6,0.30932 0.255821,0.56514 0.565146,0.56514 h 1.614956 c 0.309325,0 0.565141,-0.25582 0.565144,-0.56514 v -0.64741 c -3e-6,-0.30934 -0.255819,-0.56515 -0.565144,-0.56515 z"
         id="path108854" />
      <path
         style="color:#000000;fill:#4f697d;stroke-width:0.794521;stroke-linecap:round;stroke-linejoin:round;-inkscape-stroke:none"
         d="m 61.802734,317.10742 c -0.289131,0 -0.529297,0.24018 -0.529297,0.5293 v 0.5293 c 0,0.28911 0.240178,0.52929 0.529297,0.52929 h 0.527344 c 0.289119,0 0.529297,-0.24018 0.529297,-0.52929 v -0.5293 c 0,-0.28912 -0.240166,-0.5293 -0.529297,-0.5293 z"
         id="path1231433" />
      <path
         id="rect99596"
         style="color:#000000;display:inline;fill:#000000;stroke-width:0.794521;stroke-linecap:round;stroke-linejoin:round;-inkscape-stroke:none"
         d="m 74.699317,321.71269 v -4.44417 c 0.293918,-0.10934 0.505915,-0.39374 0.505912,-0.72347 v -0.25218 c 6e-6,-0.42281 -0.348726,-0.77153 -0.771527,-0.77153 h -0.494028 v -0.92553 c 0,-0.65443 -0.537228,-1.19166 -1.191659,-1.19166 h -4.066419 c -0.654428,0 -1.191138,0.53723 -1.191141,1.19166 v 0.92553 h -0.617532 c -0.337812,0 -0.617013,0.27972 -0.617016,0.61753 v 0.70487 c 3e-6,0.24378 0.145518,0.45719 0.353465,0.55708 -0.0011,0.96295 0,1.92234 0,2.88251 h -0.661975 c 2.02e-4,-1.6679 0,-3.33266 2.65e-4,-5.00074 0.20688,-0.10039 0.351147,-0.31323 0.351147,-0.55604 v -0.70487 c -1.6e-5,-0.3378 -0.279217,-0.61752 -0.617029,-0.61752 h -1.763716 c -0.337809,0 -0.617529,0.27972 -0.617534,0.61753 v 0.70487 c 2e-6,0.2438 0.146018,0.4572 0.353983,0.55707 -2.49e-4,1.66776 0,3.33294 0,4.9997 h -0.312124 c -0.110061,-0.30681 -0.404365,-0.52917 -0.746725,-0.52917 h -0.265618 v -1.05885 c 0.289121,0 0.529167,-0.24005 0.529167,-0.52916 v -0.52917 c 0,-0.28912 -0.240036,-0.52969 -0.529167,-0.52969 h -0.527098 c -0.289131,0 -0.529685,0.24057 -0.529685,0.52969 v 0.52917 c 0,0.28911 0.240564,0.52916 0.529685,0.52916 v 6.39548 c -0.307292,0.11003 -0.529685,0.40623 -0.529685,0.7493 v 0.52917 c 0,0.43524 0.357989,0.79272 0.793234,0.79272 h 7.144266 c 0.145415,-5.3e-4 0.263567,-0.11814 0.264068,-0.26355 5.29e-4,-0.14618 -0.117888,-0.26512 -0.264068,-0.26562 h -7.144266 c -0.149257,0 -0.263549,-0.11429 -0.263549,-0.26355 v -0.52917 c 0,-0.14925 0.114292,-0.26561 0.263549,-0.26561 h 7.813993 l -0.05839,0.0817 c -0.398232,0.62579 0.06699,1.47278 0.808736,1.47278 h 6.088002 c 0.741754,0 1.204899,-0.84699 0.802793,-1.47847 z m -9.01754,-7.77885 c 0.05106,0 0.08992,0.0361 0.08992,0.0879 v 0.70487 c 0,0.0518 -0.03808,0.0879 -0.08992,0.0879 h -1.763715 c -0.05184,0 -0.08785,-0.036 -0.08785,-0.0879 v -0.70487 c 0,-0.0486 0.03119,-0.0879 0.08294,-0.0879 z m 7.066238,0 c 0.368448,0 0.661977,0.29354 0.661977,0.66198 v 0.92552 h -0.496094 c -0.422802,0 -0.77153,0.34873 -0.77153,0.77153 v 0.25218 c 0,0.33032 0.213264,0.61508 0.507979,0.72399 v 4.44366 l -2.390035,3.33209 h -7.930266 v -3.70313 h 0.265618 c 0.342939,0 0.637622,-0.22206 0.747241,-0.52917 h 0.311608 v 2.57401 c 0,0.62088 0.513472,1.1312 1.146186,1.1312 0.632714,0 1.146698,-0.51032 1.146698,-1.1312 v -2.57401 h 0.661975 v 2.57401 c 0,0.62088 0.513987,1.1312 1.146701,1.1312 0.632714,0 1.146183,-0.51032 1.146183,-1.1312 v -2.57401 h 0.660424 v 2.57401 c 0,0.31044 0.126762,0.59662 0.33383,0.80098 0.104524,0.10278 0.272862,0.10086 0.375171,-0.004 0.102019,-0.10373 0.101061,-0.27046 -0.0021,-0.3731 -0.110271,-0.10883 -0.177768,-0.2563 -0.177768,-0.42374 v -2.57402 h 1.234551 v 1.32241 c -5.29e-4,0.14693 0.118679,0.26619 0.265615,0.26561 0.146177,-5.3e-4 0.264126,-0.11945 0.263551,-0.26561 v -1.32241 c 0.146124,5.3e-4 0.265044,-0.11742 0.265616,-0.26354 5.29e-4,-0.14694 -0.118682,-0.2662 -0.265616,-0.26562 V 319.518 c 0.207947,-0.0999 0.353465,-0.31329 0.353468,-0.55707 v -0.70694 c -5e-6,-0.33782 -0.279207,-0.61701 -0.617019,-0.61701 h -1.763715 c -0.33781,0 -0.61753,0.27919 -0.617535,0.61701 v 0.70694 c 5e-6,0.2432 0.144751,0.45637 0.351917,0.55655 v 0.76585 h -0.660424 v -2.88355 h 5.29e-4 c 0.206616,-0.10039 0.350883,-0.31324 0.350883,-0.55604 v -0.70486 c -3e-6,-0.33781 -0.279207,-0.61754 -0.617017,-0.61754 h -0.617016 v -0.92552 c 3e-6,-0.36844 0.293529,-0.66198 0.661974,-0.66198 z m -8.564335,1.40974 h 1.234035 v 2.83187 c -0.06951,0.0354 -0.115816,0.036 -0.165883,0.03 -0.07177,-0.009 -0.168447,-0.0545 -0.296622,-0.12144 -0.128175,-0.0669 -0.288044,-0.1523 -0.496094,-0.1757 -0.08683,-0.01 -0.179636,-0.006 -0.275436,0.0139 z m 4.452969,0.70745 c 0.05184,0 0.08785,0.036 0.08785,0.0878 v 0.70486 c 0,0.0518 -0.03601,0.0879 -0.08785,0.0879 h -1.763715 c -0.05184,0 -0.08785,-0.0361 -0.08785,-0.0879 v -0.70486 c 0,-0.0486 0.03187,-0.0837 0.07855,-0.0878 z m 5.797058,0 c 0.136819,0 0.241848,0.10502 0.241845,0.24184 v 0.25218 c 3e-6,0.13682 -0.105026,0.24185 -0.241845,0.24185 h -0.252182 c -0.146931,-5.3e-4 -0.26619,0.11869 -0.265615,0.26562 7.93e-4,0.14158 0.11277,0.2575 0.254246,0.26303 v 0.58704 h -0.197403 c -0.145418,5.3e-4 -0.263054,0.11813 -0.263549,0.26356 -5.29e-4,0.14616 0.117374,0.26511 0.263549,0.26561 h 0.197403 v 0.52917 h -0.197403 c -0.145413,5.3e-4 -0.263049,0.11814 -0.263549,0.26355 -5.29e-4,0.14617 0.117374,0.26511 0.263549,0.26561 h 0.197403 v 0.52969 h -0.197403 c -0.145413,5.3e-4 -0.263049,0.11814 -0.263549,0.26355 -5.29e-4,0.14618 0.117369,0.26512 0.263549,0.26562 h 0.197403 v 0.52709 h -0.197403 c -0.14618,5.3e-4 -0.264129,0.11944 -0.263549,0.26562 5.29e-4,0.14541 0.118136,0.26357 0.263549,0.26407 h 0.197403 v 0.1912 c -2.36e-4,0.0553 0.01659,0.10893 0.04858,0.154 l 0.993219,1.38492 c -0.615476,-0.0111 -0.987462,-0.22897 -1.444355,-0.39429 -0.280233,-0.1014 -0.597908,-0.17882 -0.968933,-0.13281 -0.10786,0.0134 -0.219046,0.0368 -0.335381,0.0713 l 0.665594,-0.92914 c 0.03269,-0.0448 0.05031,-0.0985 0.05064,-0.154 v -4.48138 c 0.140663,-0.007 0.251512,-0.12222 0.252182,-0.26303 5.29e-4,-0.14613 -0.117425,-0.26505 -0.263549,-0.26562 h -0.254249 c -0.136821,0 -0.241845,-0.10503 -0.241845,-0.24185 v -0.25218 c 0,-0.13254 0.09887,-0.23553 0.229442,-0.24184 z m -7.297235,1.40973 h 1.236618 v 1.77302 c -0.06982,0.0356 -0.115682,0.0361 -0.165881,0.03 -0.07177,-0.009 -0.168965,-0.054 -0.29714,-0.12092 -0.128172,-0.0669 -0.288044,-0.15288 -0.496094,-0.17622 -0.08753,-0.01 -0.18089,-0.006 -0.277503,0.0145 z m -5.333524,0.17622 h 0.527098 v 0.52917 h -0.527098 z m 8.02535,0.52917 h 1.763715 c 0.05184,0 0.08785,0.0359 0.08785,0.0878 v 0.70694 c 0,0.0518 -0.03601,0.0879 -0.08785,0.0879 h -1.763715 c -0.05184,0 -0.08785,-0.0361 -0.08785,-0.0879 v -0.70694 c 0,-0.0519 0.03601,-0.0878 0.08785,-0.0878 z m -5.117518,0.3886 c 0.125386,0.0654 0.277442,0.15131 0.478525,0.1757 0.07251,0.009 0.149585,0.006 0.22841,-0.008 v 1.56064 H 64.18368 v -1.8123 c 0.06648,-0.0305 0.119835,-0.0402 0.191719,-0.0387 0.111694,0 0.209998,0.0571 0.335381,0.12247 z m 0.09043,0.67024 c -0.146934,-5.2e-4 -0.266195,0.11869 -0.265618,0.26562 5.29e-4,0.14613 0.119491,0.26412 0.265618,0.26355 0.14552,-2.6e-4 0.263498,-0.11803 0.264067,-0.26355 5.29e-4,-0.14633 -0.11774,-0.26533 -0.264067,-0.26562 z m 2.554366,0.26717 c 0.09101,0 0.185188,0.0555 0.310574,0.12092 0.125386,0.0654 0.275375,0.15185 0.476459,0.17622 0.07322,0.009 0.150847,0.006 0.230476,-0.009 v 0.50282 h -1.236618 v -0.75293 c 0,0 0.104791,-0.0382 0.219109,-0.0382 z m 2.736266,0.0858 h 1.234551 v 0.70539 h -1.234551 z m -7.761801,0.70539 h 0.265618 c 0.149256,0 0.263551,0.11635 0.263549,0.26562 0,0.14925 -0.114293,0.26354 -0.263549,0.26354 h -0.265618 z m 1.853634,0.52916 h 1.234035 v 2.57401 c 0,0.3349 -0.260662,0.60203 -0.617016,0.60203 -0.356354,0 -0.617019,-0.26713 -0.617019,-0.60203 z m 2.952792,0 h 1.236618 v 2.57401 c 0,0.3349 -0.260663,0.60203 -0.617017,0.60203 -0.356354,0 -0.619601,-0.26713 -0.619601,-0.60203 z m 0.619601,0.52917 c -0.146933,-5.3e-4 -0.266194,0.11869 -0.265618,0.26562 5.3e-4,0.14613 0.119492,0.26412 0.265618,0.26355 0.145317,-5.3e-4 0.262983,-0.11823 0.263549,-0.26355 5.29e-4,-0.14613 -0.117422,-0.26505 -0.263549,-0.26562 z m -2.954858,1.05833 c -0.146934,-5.2e-4 -0.266195,0.11869 -0.265618,0.26562 5.29e-4,0.14613 0.119491,0.26412 0.265618,0.26355 0.14552,-2.6e-4 0.263498,-0.11803 0.264067,-0.26355 5.29e-4,-0.14633 -0.11774,-0.26533 -0.264067,-0.26562 z m 8.208801,0.92398 c 0.202046,-0.003 0.376729,0.0433 0.575675,0.11524 0.464405,0.16803 1.044676,0.4941 1.995744,0.41186 l 1.498616,2.09031 c 0.189137,0.29721 -0.0089,0.65836 -0.361217,0.65836 h -6.088002 c -0.352285,0 -0.550354,-0.36115 -0.361217,-0.65836 l 1.553909,-2.16886 c 0.318251,-0.31825 0.777179,-0.44855 1.186492,-0.44855 z m -0.855763,0.75344 c -0.140629,-5.3e-4 -0.254762,0.11362 -0.254246,0.25425 2.64e-4,0.14002 0.114223,0.25321 0.254246,0.2527 0.139419,-2.7e-4 0.252357,-0.11328 0.252698,-0.2527 5.29e-4,-0.14003 -0.112673,-0.25391 -0.252698,-0.25425 z m 3.294375,0.25322 c -0.140629,-5.3e-4 -0.254765,0.11361 -0.254249,0.25424 2.64e-4,0.14003 0.114223,0.25321 0.254249,0.2527 0.139215,-5.3e-4 0.251838,-0.11348 0.252179,-0.2527 5.29e-4,-0.13982 -0.112358,-0.25361 -0.252179,-0.25424 z m -1.773537,0.25373 c -0.140631,-5.3e-4 -0.254765,0.11361 -0.254249,0.25425 5.29e-4,0.13982 0.114427,0.25269 0.254249,0.25218 0.139219,-2.7e-4 0.252071,-0.11297 0.252698,-0.25218 5.29e-4,-0.14003 -0.112673,-0.25391 -0.252698,-0.25425 z M 72.6612,325.344 c -0.140632,-5.3e-4 -0.254765,0.11362 -0.254249,0.25425 2.65e-4,0.14002 0.114223,0.25321 0.254249,0.2527 0.139216,-5.3e-4 0.251838,-0.11348 0.252179,-0.2527 5.3e-4,-0.13982 -0.112358,-0.25362 -0.252179,-0.25425 z m 3.293856,0 c -0.140631,-5.3e-4 -0.254765,0.11362 -0.254249,0.25425 2.65e-4,0.14002 0.114224,0.25321 0.254249,0.2527 0.13942,-2.7e-4 0.252357,-0.11328 0.252698,-0.2527 5.29e-4,-0.14003 -0.112673,-0.25391 -0.252698,-0.25425 z m -4.559411,0.25321 c -0.140833,-7.9e-4 -0.255284,0.11342 -0.254765,0.25425 2.65e-4,0.14023 0.114538,0.2535 0.254765,0.2527 0.139216,-5.3e-4 0.251838,-0.11348 0.252179,-0.2527 5.3e-4,-0.13982 -0.112358,-0.25362 -0.252179,-0.25425 z m 3.291787,0 c -0.140629,-5.2e-4 -0.254762,0.11362 -0.254246,0.25425 2.64e-4,0.14003 0.114223,0.25321 0.254246,0.2527 0.139419,-2.6e-4 0.252357,-0.11328 0.252698,-0.2527 5.29e-4,-0.14002 -0.112673,-0.2539 -0.252698,-0.25425 z"
         sodipodi:nodetypes="ccssscsssscsssccccsssssscccsccssssssccssscccssssccssccssssssscsccssscccccsccsssccsssccscccsccccccsccsssssscccccssscssccscssccsscsssssscccccccccccccccccccccccccccccssccccccssssccccccccccccssssssssssscssccscscccsscsscccsccccscsssscccssscccssscssssscscsccccccscccccccccccccccccccccccccccccccccccccccccc" />
    </g>
  </g>
</svg>
